<?xml version="1.0" standalone="no"?><!DOCTYPE svg PUBLIC "-//W3C//DTD SVG 1.1//EN" "http://www.w3.org/Graphics/SVG/1.1/DTD/svg11.dtd"><svg t="1574818697741" class="icon" viewBox="0 0 1024 1024" version="1.1" xmlns="http://www.w3.org/2000/svg" p-id="6444" xmlns:xlink="http://www.w3.org/1999/xlink" width="200" height="200"><defs><style type="text/css"></style></defs><path d="M916.9 289.83c-7.35-31.61 18.81-91.66 0-128.33-11.9-23.19-77.24-28.47-94.07-36.67-37.63-18.33-66.7-7.63-102.77 27.52S590.73 348.67 539.73 398.38c-150.51-52.72-222.65-17.57-288.54 0-69.58 18.56-70.49-6.43-105.64 1.45-37.77 8.47-101.86 113.14-75.25 165 18.81 36.67 48.03 24.6 56.44 0 18.81-55 59-70.84 75.25-55 18.81 18.33 8.41 56.93 0 73.33-56.44 110-40.97 149.11-40.97 149.11s-155.3-27.13-72.14 70.29c120 140.59 661.02 140.59 793.5 0 87.95-93.34-49.15-59.54-72.14-70.29-69.45-32.49-96.41-206.1-96.41-281.17 0-35.15 40.43-75.31 72.14-70.29 25.17 3.98 72.27 62.27 96.41 70.29 13.49 4.49 64.47-21.24 72.15-32.94 22-33.51-28.89-90.75-37.63-128.33zM704.39 760.84c-64.84 23.74-144.08 37.89-230.02 37.89-85.93 0-165.17-14.15-230.01-37.89-1.86-0.68-2.95-2.95-2.5-5.1C263.12 652.72 359.01 574.9 474.37 574.9s211.25 77.82 232.52 180.84c0.44 2.15-0.64 4.42-2.5 5.1z" fill="#FFC041" p-id="6445"></path></svg>