<?xml version="1.0" standalone="no"?><!DOCTYPE svg PUBLIC "-//W3C//DTD SVG 1.1//EN" "http://www.w3.org/Graphics/SVG/1.1/DTD/svg11.dtd"><svg t="1574818656048" class="icon" viewBox="0 0 1024 1024" version="1.1" xmlns="http://www.w3.org/2000/svg" p-id="4961" xmlns:xlink="http://www.w3.org/1999/xlink" width="200" height="200"><defs><style type="text/css"></style></defs><path d="M856 448c-1 0-2 0-3.07 0.06C813.87 296.21 676 184 512 184S210.13 296.21 171.07 448.06c-1 0-2-0.06-3.07-0.06a88 88 0 0 0 0 176c1 0 2.05 0 3.07-0.06C210.13 775.79 348 888 512 888s301.87-112.21 340.93-264.06c1 0 2 0.06 3.07 0.06a88 88 0 0 0 0-176z" fill="#FFCEBF" p-id="4962"></path><path d="M475.32 180.71a144 144 0 0 0-29.57 11.36A88 88 0 1 1 368 325.28a144 144 0 1 0 107.32-144.57z" fill="#966E64" p-id="4963"></path><path d="M264 616m-56 0a56 56 0 1 0 112 0 56 56 0 1 0-112 0Z" fill="#FFA096" p-id="4964"></path><path d="M760 616m-56 0a56 56 0 1 0 112 0 56 56 0 1 0-112 0Z" fill="#FFA096" p-id="4965"></path><path d="M512 800c67.48 0 124.47-43.53 142.65-103.17 6.22-20.41-9.8-40.83-31.77-40.83H401.12c-22 0-38 20.42-31.77 40.83C387.53 756.47 444.52 800 512 800z" fill="#FF6242" p-id="4966"></path><path d="M594.62 784c0-44.18-37-80-82.62-80s-82.62 35.82-82.62 80c0 0 18.62 16 82.62 16s82.62-16 82.62-16z" fill="#FFA096" p-id="4967"></path><path d="M865.23 436.41a368.06 368.06 0 0 0-288.48-258.75 158.77 158.77 0 0 0-105.5-8.43 160.82 160.82 0 0 0-24.1 8.45 368.33 368.33 0 0 0-288.38 258.73 104 104 0 0 0 0 207.18 368.15 368.15 0 0 0 706.46 0 104 104 0 0 0 0-207.18zM567.35 208.56q4.62 2.24 9.11 4.84a128 128 0 0 1-31.92 234.35C483.06 463.93 420.05 432.34 395 376q4.22 2.24 8.64 4.07a103 103 0 0 0 66.36 4.57 104.12 104.12 0 0 0 74.11-127A103 103 0 0 0 510 204c-0.81-0.66-1.61-1.33-2.43-2q-3.78-2.94-7.82-5.53a126.78 126.78 0 0 1 67.6 12.09zM96 540a72.11 72.11 0 0 1 54.61-69.86 372.47 372.47 0 0 0 0 139.72A72.11 72.11 0 0 1 96 540z m416 336c-150 0-277.32-98.79-320.38-234.71q-4.81-15.18-8.19-31a336.48 336.48 0 0 1 0-140.64q3.36-15.76 8.19-31c36.11-114 131.5-201.84 249.8-227.24a15.57 15.57 0 0 0 3.94 0.59 72 72 0 1 1-63.59 109 16 16 0 0 0-29.72 8.82 161.51 161.51 0 0 0 5.18 34.8A160.2 160.2 0 0 0 511.7 484a160.87 160.87 0 0 0 41-5.33c85.32-22.46 136.47-110.13 114-195.45A160 160 0 0 0 641.58 230a337.65 337.65 0 0 1 190.8 208.7q4.82 15.18 8.19 31a336.48 336.48 0 0 1 0 140.64q-3.36 15.76-8.19 31C789.32 777.21 662 876 512 876z m361.39-266.14a372.47 372.47 0 0 0 0-139.72 72 72 0 0 1 0 139.72z" fill="#222222" p-id="4968"></path><path d="M384 484h-18.74a48 48 0 0 0-90.52 0H256a16 16 0 0 0 0 32h18.74a48 48 0 0 0 90.52 0H384a16 16 0 0 0 0-32zM768 484h-18.74a48 48 0 0 0-90.52 0H640a16 16 0 0 0 0 32h18.74a48 48 0 0 0 90.52 0H768a16 16 0 0 0 0-32zM662.68 663.89a49.62 49.62 0 0 0-39.8-19.89H401.12a49.62 49.62 0 0 0-39.8 19.89 46.48 46.48 0 0 0-7.27 41.6c0.79 2.6 1.66 5.18 2.59 7.74 0 0.08 0.05 0.17 0.08 0.26 0.13 0.34 0.26 0.67 0.38 1v0.08a159 159 0 0 0 38.76 58.87 162.46 162.46 0 0 0 16.82 14.22 166.28 166.28 0 0 0 96 32.3h6.54a166.28 166.28 0 0 0 96-32.3A162 162 0 0 0 628 773.52a159 159 0 0 0 38.84-58.94v-0.08c0.12-0.34 0.25-0.67 0.38-1 0-0.09 0.05-0.18 0.08-0.26 0.93-2.56 1.8-5.14 2.59-7.74a46.48 46.48 0 0 0-7.21-41.61zM387 682.93a17.31 17.31 0 0 1 14.12-6.93h221.76a17.31 17.31 0 0 1 14.12 6.93 14.69 14.69 0 0 1 2.37 13.23c-0.89 2.91-1.9 5.77-3 8.58-0.23 0.59-0.45 1.19-0.69 1.78-0.5 1.24-1 2.48-1.57 3.7l-0.38 0.87c-19.37 42.73-62.14 72.47-110.6 76.45h-0.25c-1.56 0.13-3.13 0.22-4.69 0.29h-0.76c-1.8 0.07-3.6 0.11-5.41 0.11s-3.61 0-5.41-0.11h-0.76c-1.56-0.07-3.13-0.16-4.69-0.29h-0.25c-48.46-4-91.23-33.72-110.6-76.45l-0.38-0.87c-0.54-1.22-1.07-2.46-1.57-3.7-0.24-0.59-0.46-1.19-0.69-1.78-1.09-2.81-2.1-5.67-3-8.58a14.69 14.69 0 0 1 2.33-13.23z" fill="#222222" p-id="4969"></path></svg>