<?xml version="1.0" standalone="no"?><!DOCTYPE svg PUBLIC "-//W3C//DTD SVG 1.1//EN" "http://www.w3.org/Graphics/SVG/1.1/DTD/svg11.dtd"><svg t="1574223852585" class="icon" viewBox="0 0 1024 1024" version="1.1" xmlns="http://www.w3.org/2000/svg" p-id="6509" xmlns:xlink="http://www.w3.org/1999/xlink" width="200" height="200"><defs><style type="text/css"></style></defs><path d="M152.59648 567.17824c55.36768 55.36256 128.96768 85.8624 207.27296 85.8624h0.01536a295.7824 295.7824 0 0 0 111.52384-21.95968l293.21216 293.21216c21.34016 21.34016 49.71008 33.09056 79.89248 33.09056s58.55744-11.76064 79.89248-33.09056c44.05248-44.0576 44.05248-115.7376 0-159.77984L631.1936 471.30624c44.66176-108.71808 19.92192-235.00288-63.89248-318.81728-55.3728-55.36768-128.99328-85.86752-207.30368-85.86752a292.23936 292.23936 0 0 0-111.93344 22.1184l-31.0784 12.81024L357.90848 242.4832a81.06496 81.06496 0 0 1 23.8848 57.65632c0 21.77536-8.48384 42.25024-23.8848 57.64608a81.00864 81.00864 0 0 1-57.66144 23.8848 81.00864 81.00864 0 0 1-57.6512-23.8848L125.44 240.64l-23.77728-23.77216-12.81536 31.08352c-45.312 109.90592-20.28544 235.20768 63.74912 319.22688z m-33.26976-269.20448l91.55072 91.54048c23.86944 23.86944 55.60832 37.02272 89.3696 37.02272s65.50016-13.15328 89.36448-37.02784c23.86944-23.86944 37.02784-55.6032 37.02784-89.36448 0-33.77152-13.1584-65.50528-37.02784-89.37984L298.09664 119.23968a248.55552 248.55552 0 0 1 61.89568-7.76704c66.32448 0 128.68608 25.8304 175.5904 72.73472 74.20416 74.20416 93.75232 187.70944 48.64 282.4448l-6.8096 14.29504 315.25888 315.28448c26.5728 26.56256 26.5728 69.79072 0 96.34816-12.86144 12.87168-29.97248 19.95776-48.16896 19.95776s-35.3024-7.0912-48.17408-19.95776l-315.27936-315.26912-14.29504 6.79936c-33.0752 15.75936-70.02624 24.07936-106.87488 24.07936-66.3296 0-128.68096-25.82016-175.57504-72.71936C121.3952 472.56064 97.53088 382.35136 119.32672 297.97376z" fill="#333333" p-id="6510"></path></svg>